<svg width="250" height="100" viewBox="0 0 250 100" fill="none" xmlns="http://www.w3.org/2000/svg">
<path d="M51.2812 42.0391V17.875H55.7812V42.0391C55.7812 44.2891 55.3203 46.1875 54.3984 47.7344C53.4766 49.2812 52.2031 50.4609 50.5781 51.2734C48.9688 52.0703 47.1172 52.4688 45.0234 52.4688C42.9297 52.4688 41.0703 52.1094 39.4453 51.3906C37.8203 50.6719 36.5469 49.5781 35.625 48.1094C34.7031 46.6406 34.2422 44.7891 34.2422 42.5547H38.7656C38.7656 43.9922 39.0312 45.1719 39.5625 46.0938C40.0938 47.0156 40.8281 47.6953 41.7656 48.1328C42.7188 48.5703 43.8047 48.7891 45.0234 48.7891C46.2109 48.7891 47.2734 48.5391 48.2109 48.0391C49.1641 47.5234 49.9141 46.7656 50.4609 45.7656C51.0078 44.75 51.2812 43.5078 51.2812 42.0391ZM77.7422 47.6641V34.6094C77.7422 33.6094 77.5391 32.7422 77.1328 32.0078C76.7422 31.2578 76.1484 30.6797 75.3516 30.2734C74.5547 29.8672 73.5703 29.6641 72.3984 29.6641C71.3047 29.6641 70.3438 29.8516 69.5156 30.2266C68.7031 30.6016 68.0625 31.0938 67.5938 31.7031C67.1406 32.3125 66.9141 32.9688 66.9141 33.6719H62.5781C62.5781 32.7656 62.8125 31.8672 63.2812 30.9766C63.75 30.0859 64.4219 29.2812 65.2969 28.5625C66.1875 27.8281 67.25 27.25 68.4844 26.8281C69.7344 26.3906 71.125 26.1719 72.6562 26.1719C74.5 26.1719 76.125 26.4844 77.5312 27.1094C78.9531 27.7344 80.0625 28.6797 80.8594 29.9453C81.6719 31.1953 82.0781 32.7656 82.0781 34.6562V46.4688C82.0781 47.3125 82.1484 48.2109 82.2891 49.1641C82.4453 50.1172 82.6719 50.9375 82.9688 51.625V52H78.4453C78.2266 51.5 78.0547 50.8359 77.9297 50.0078C77.8047 49.1641 77.7422 48.3828 77.7422 47.6641ZM78.4922 36.625L78.5391 39.6719H74.1562C72.9219 39.6719 71.8203 39.7734 70.8516 39.9766C69.8828 40.1641 69.0703 40.4531 68.4141 40.8438C67.7578 41.2344 67.2578 41.7266 66.9141 42.3203C66.5703 42.8984 66.3984 43.5781 66.3984 44.3594C66.3984 45.1562 66.5781 45.8828 66.9375 46.5391C67.2969 47.1953 67.8359 47.7188 68.5547 48.1094C69.2891 48.4844 70.1875 48.6719 71.25 48.6719C72.5781 48.6719 73.75 48.3906 74.7656 47.8281C75.7812 47.2656 76.5859 46.5781 77.1797 45.7656C77.7891 44.9531 78.1172 44.1641 78.1641 43.3984L80.0156 45.4844C79.9062 46.1406 79.6094 46.8672 79.125 47.6641C78.6406 48.4609 77.9922 49.2266 77.1797 49.9609C76.3828 50.6797 75.4297 51.2812 74.3203 51.7656C73.2266 52.2344 71.9922 52.4688 70.6172 52.4688C68.8984 52.4688 67.3906 52.1328 66.0938 51.4609C64.8125 50.7891 63.8125 49.8906 63.0938 48.7656C62.3906 47.625 62.0391 46.3516 62.0391 44.9453C62.0391 43.5859 62.3047 42.3906 62.8359 41.3594C63.3672 40.3125 64.1328 39.4453 65.1328 38.7578C66.1328 38.0547 67.3359 37.5234 68.7422 37.1641C70.1484 36.8047 71.7188 36.625 73.4531 36.625H78.4922ZM99.4219 52.4688C97.6562 52.4688 96.0547 52.1719 94.6172 51.5781C93.1953 50.9688 91.9688 50.1172 90.9375 49.0234C89.9219 47.9297 89.1406 46.6328 88.5938 45.1328C88.0469 43.6328 87.7734 41.9922 87.7734 40.2109V39.2266C87.7734 37.1641 88.0781 35.3281 88.6875 33.7188C89.2969 32.0938 90.125 30.7188 91.1719 29.5938C92.2188 28.4688 93.4062 27.6172 94.7344 27.0391C96.0625 26.4609 97.4375 26.1719 98.8594 26.1719C100.672 26.1719 102.234 26.4844 103.547 27.1094C104.875 27.7344 105.961 28.6094 106.805 29.7344C107.648 30.8438 108.273 32.1562 108.68 33.6719C109.086 35.1719 109.289 36.8125 109.289 38.5938V40.5391H90.3516V37H104.953V36.6719C104.891 35.5469 104.656 34.4531 104.25 33.3906C103.859 32.3281 103.234 31.4531 102.375 30.7656C101.516 30.0781 100.344 29.7344 98.8594 29.7344C97.875 29.7344 96.9688 29.9453 96.1406 30.3672C95.3125 30.7734 94.6016 31.3828 94.0078 32.1953C93.4141 33.0078 92.9531 34 92.625 35.1719C92.2969 36.3438 92.1328 37.6953 92.1328 39.2266V40.2109C92.1328 41.4141 92.2969 42.5469 92.625 43.6094C92.9688 44.6562 93.4609 45.5781 94.1016 46.375C94.7578 47.1719 95.5469 47.7969 96.4688 48.25C97.4062 48.7031 98.4688 48.9297 99.6562 48.9297C101.188 48.9297 102.484 48.6172 103.547 47.9922C104.609 47.3672 105.539 46.5312 106.336 45.4844L108.961 47.5703C108.414 48.3984 107.719 49.1875 106.875 49.9375C106.031 50.6875 104.992 51.2969 103.758 51.7656C102.539 52.2344 101.094 52.4688 99.4219 52.4688ZM145.102 43.375C145.102 42.5781 144.977 41.875 144.727 41.2656C144.492 40.6406 144.07 40.0781 143.461 39.5781C142.867 39.0781 142.039 38.6016 140.977 38.1484C139.93 37.6953 138.602 37.2344 136.992 36.7656C135.305 36.2656 133.781 35.7109 132.422 35.1016C131.062 34.4766 129.898 33.7656 128.93 32.9688C127.961 32.1719 127.219 31.2578 126.703 30.2266C126.188 29.1953 125.93 28.0156 125.93 26.6875C125.93 25.3594 126.203 24.1328 126.75 23.0078C127.297 21.8828 128.078 20.9062 129.094 20.0781C130.125 19.2344 131.352 18.5781 132.773 18.1094C134.195 17.6406 135.781 17.4062 137.531 17.4062C140.094 17.4062 142.266 17.8984 144.047 18.8828C145.844 19.8516 147.211 21.125 148.148 22.7031C149.086 24.2656 149.555 25.9375 149.555 27.7188H145.055C145.055 26.4375 144.781 25.3047 144.234 24.3203C143.688 23.3203 142.859 22.5391 141.75 21.9766C140.641 21.3984 139.234 21.1094 137.531 21.1094C135.922 21.1094 134.594 21.3516 133.547 21.8359C132.5 22.3203 131.719 22.9766 131.203 23.8047C130.703 24.6328 130.453 25.5781 130.453 26.6406C130.453 27.3594 130.602 28.0156 130.898 28.6094C131.211 29.1875 131.688 29.7266 132.328 30.2266C132.984 30.7266 133.812 31.1875 134.812 31.6094C135.828 32.0312 137.039 32.4375 138.445 32.8281C140.383 33.375 142.055 33.9844 143.461 34.6562C144.867 35.3281 146.023 36.0859 146.93 36.9297C147.852 37.7578 148.531 38.7031 148.969 39.7656C149.422 40.8125 149.648 42 149.648 43.3281C149.648 44.7188 149.367 45.9766 148.805 47.1016C148.242 48.2266 147.438 49.1875 146.391 49.9844C145.344 50.7812 144.086 51.3984 142.617 51.8359C141.164 52.2578 139.539 52.4688 137.742 52.4688C136.164 52.4688 134.609 52.25 133.078 51.8125C131.562 51.375 130.18 50.7188 128.93 49.8438C127.695 48.9688 126.703 47.8906 125.953 46.6094C125.219 45.3125 124.852 43.8125 124.852 42.1094H129.352C129.352 43.2812 129.578 44.2891 130.031 45.1328C130.484 45.9609 131.102 46.6484 131.883 47.1953C132.68 47.7422 133.578 48.1484 134.578 48.4141C135.594 48.6641 136.648 48.7891 137.742 48.7891C139.32 48.7891 140.656 48.5703 141.75 48.1328C142.844 47.6953 143.672 47.0703 144.234 46.2578C144.812 45.4453 145.102 44.4844 145.102 43.375ZM159.094 16V52H154.758V16H159.094ZM158.062 38.3594L156.258 38.2891C156.273 36.5547 156.531 34.9531 157.031 33.4844C157.531 32 158.234 30.7109 159.141 29.6172C160.047 28.5234 161.125 27.6797 162.375 27.0859C163.641 26.4766 165.039 26.1719 166.57 26.1719C167.82 26.1719 168.945 26.3438 169.945 26.6875C170.945 27.0156 171.797 27.5469 172.5 28.2812C173.219 29.0156 173.766 29.9688 174.141 31.1406C174.516 32.2969 174.703 33.7109 174.703 35.3828V52H170.344V35.3359C170.344 34.0078 170.148 32.9453 169.758 32.1484C169.367 31.3359 168.797 30.75 168.047 30.3906C167.297 30.0156 166.375 29.8281 165.281 29.8281C164.203 29.8281 163.219 30.0547 162.328 30.5078C161.453 30.9609 160.695 31.5859 160.055 32.3828C159.43 33.1797 158.938 34.0938 158.578 35.125C158.234 36.1406 158.062 37.2188 158.062 38.3594ZM185.906 26.6406V52H181.547V26.6406H185.906ZM181.219 19.9141C181.219 19.2109 181.43 18.6172 181.852 18.1328C182.289 17.6484 182.93 17.4062 183.773 17.4062C184.602 17.4062 185.234 17.6484 185.672 18.1328C186.125 18.6172 186.352 19.2109 186.352 19.9141C186.352 20.5859 186.125 21.1641 185.672 21.6484C185.234 22.1172 184.602 22.3516 183.773 22.3516C182.93 22.3516 182.289 22.1172 181.852 21.6484C181.43 21.1641 181.219 20.5859 181.219 19.9141ZM197.203 32.0547V52H192.867V26.6406H196.969L197.203 32.0547ZM196.172 38.3594L194.367 38.2891C194.383 36.5547 194.641 34.9531 195.141 33.4844C195.641 32 196.344 30.7109 197.25 29.6172C198.156 28.5234 199.234 27.6797 200.484 27.0859C201.75 26.4766 203.148 26.1719 204.68 26.1719C205.93 26.1719 207.055 26.3438 208.055 26.6875C209.055 27.0156 209.906 27.5469 210.609 28.2812C211.328 29.0156 211.875 29.9688 212.25 31.1406C212.625 32.2969 212.812 33.7109 212.812 35.3828V52H208.453V35.3359C208.453 34.0078 208.258 32.9453 207.867 32.1484C207.477 31.3359 206.906 30.75 206.156 30.3906C205.406 30.0156 204.484 29.8281 203.391 29.8281C202.312 29.8281 201.328 30.0547 200.438 30.5078C199.562 30.9609 198.805 31.5859 198.164 32.3828C197.539 33.1797 197.047 34.0938 196.688 35.125C196.344 36.1406 196.172 37.2188 196.172 38.3594Z" fill="black"/>
<path d="M70.7422 68.9375H72.9922V80.4805C72.9922 81.7617 72.707 82.8281 72.1367 83.6797C71.5664 84.5312 70.8086 85.1719 69.8633 85.6016C68.9258 86.0234 67.9062 86.2344 66.8047 86.2344C65.6484 86.2344 64.6016 86.0234 63.6641 85.6016C62.7344 85.1719 61.9961 84.5312 61.4492 83.6797C60.9102 82.8281 60.6406 81.7617 60.6406 80.4805V68.9375H62.8789V80.4805C62.8789 81.3711 63.043 82.1055 63.3711 82.6836C63.6992 83.2617 64.1562 83.6914 64.7422 83.9727C65.3359 84.2539 66.0234 84.3945 66.8047 84.3945C67.5938 84.3945 68.2812 84.2539 68.8672 83.9727C69.4609 83.6914 69.9219 83.2617 70.25 82.6836C70.5781 82.1055 70.7422 81.3711 70.7422 80.4805V68.9375ZM78.0078 68.9375L82.1094 75.4766L86.2109 68.9375H88.8477L83.457 77.3867L88.9766 86H86.3164L82.1094 79.332L77.9023 86H75.2422L80.7617 77.3867L75.3711 68.9375H78.0078ZM102.16 86H98.5977L98.6211 84.1602H102.16C103.379 84.1602 104.395 83.9062 105.207 83.3984C106.02 82.8828 106.629 82.1641 107.035 81.2422C107.449 80.3125 107.656 79.2266 107.656 77.9844V76.9414C107.656 75.9648 107.539 75.0977 107.305 74.3398C107.07 73.5742 106.727 72.9297 106.273 72.4062C105.82 71.875 105.266 71.4727 104.609 71.1992C103.961 70.9258 103.215 70.7891 102.371 70.7891H98.5273V68.9375H102.371C103.488 68.9375 104.508 69.125 105.43 69.5C106.352 69.8672 107.145 70.4023 107.809 71.1055C108.48 71.8008 108.996 72.6445 109.355 73.6367C109.715 74.6211 109.895 75.7305 109.895 76.9648V77.9844C109.895 79.2188 109.715 80.332 109.355 81.3242C108.996 82.3086 108.477 83.1484 107.797 83.8438C107.125 84.5391 106.312 85.0742 105.359 85.4492C104.414 85.8164 103.348 86 102.16 86ZM99.8047 68.9375V86H97.543V68.9375H99.8047ZM118.227 86.2344C117.344 86.2344 116.543 86.0859 115.824 85.7891C115.113 85.4844 114.5 85.0586 113.984 84.5117C113.477 83.9648 113.086 83.3164 112.812 82.5664C112.539 81.8164 112.402 80.9961 112.402 80.1055V79.6133C112.402 78.582 112.555 77.6641 112.859 76.8594C113.164 76.0469 113.578 75.3594 114.102 74.7969C114.625 74.2344 115.219 73.8086 115.883 73.5195C116.547 73.2305 117.234 73.0859 117.945 73.0859C118.852 73.0859 119.633 73.2422 120.289 73.5547C120.953 73.8672 121.496 74.3047 121.918 74.8672C122.34 75.4219 122.652 76.0781 122.855 76.8359C123.059 77.5859 123.16 78.4062 123.16 79.2969V80.2695H113.691V78.5H120.992V78.3359C120.961 77.7734 120.844 77.2266 120.641 76.6953C120.445 76.1641 120.133 75.7266 119.703 75.3828C119.273 75.0391 118.688 74.8672 117.945 74.8672C117.453 74.8672 117 74.9727 116.586 75.1836C116.172 75.3867 115.816 75.6914 115.52 76.0977C115.223 76.5039 114.992 77 114.828 77.5859C114.664 78.1719 114.582 78.8477 114.582 79.6133V80.1055C114.582 80.707 114.664 81.2734 114.828 81.8047C115 82.3281 115.246 82.7891 115.566 83.1875C115.895 83.5859 116.289 83.8984 116.75 84.125C117.219 84.3516 117.75 84.4648 118.344 84.4648C119.109 84.4648 119.758 84.3086 120.289 83.9961C120.82 83.6836 121.285 83.2656 121.684 82.7422L122.996 83.7852C122.723 84.1992 122.375 84.5938 121.953 84.9688C121.531 85.3438 121.012 85.6484 120.395 85.8828C119.785 86.1172 119.062 86.2344 118.227 86.2344ZM133.074 82.6367C133.074 82.3242 133.004 82.0352 132.863 81.7695C132.73 81.4961 132.453 81.25 132.031 81.0312C131.617 80.8047 130.992 80.6094 130.156 80.4453C129.453 80.2969 128.816 80.1211 128.246 79.918C127.684 79.7148 127.203 79.4688 126.805 79.1797C126.414 78.8906 126.113 78.5508 125.902 78.1602C125.691 77.7695 125.586 77.3125 125.586 76.7891C125.586 76.2891 125.695 75.8164 125.914 75.3711C126.141 74.9258 126.457 74.5312 126.863 74.1875C127.277 73.8438 127.773 73.5742 128.352 73.3789C128.93 73.1836 129.574 73.0859 130.285 73.0859C131.301 73.0859 132.168 73.2656 132.887 73.625C133.605 73.9844 134.156 74.4648 134.539 75.0664C134.922 75.6602 135.113 76.3203 135.113 77.0469H132.945C132.945 76.6953 132.84 76.3555 132.629 76.0273C132.426 75.6914 132.125 75.4141 131.727 75.1953C131.336 74.9766 130.855 74.8672 130.285 74.8672C129.684 74.8672 129.195 74.9609 128.82 75.1484C128.453 75.3281 128.184 75.5586 128.012 75.8398C127.848 76.1211 127.766 76.418 127.766 76.7305C127.766 76.9648 127.805 77.1758 127.883 77.3633C127.969 77.543 128.117 77.7109 128.328 77.8672C128.539 78.0156 128.836 78.1562 129.219 78.2891C129.602 78.4219 130.09 78.5547 130.684 78.6875C131.723 78.9219 132.578 79.2031 133.25 79.5312C133.922 79.8594 134.422 80.2617 134.75 80.7383C135.078 81.2148 135.242 81.793 135.242 82.4727C135.242 83.0273 135.125 83.5352 134.891 83.9961C134.664 84.457 134.332 84.8555 133.895 85.1914C133.465 85.5195 132.949 85.7773 132.348 85.9648C131.754 86.1445 131.086 86.2344 130.344 86.2344C129.227 86.2344 128.281 86.0352 127.508 85.6367C126.734 85.2383 126.148 84.7227 125.75 84.0898C125.352 83.457 125.152 82.7891 125.152 82.0859H127.332C127.363 82.6797 127.535 83.1523 127.848 83.5039C128.16 83.8477 128.543 84.0938 128.996 84.2422C129.449 84.3828 129.898 84.4531 130.344 84.4531C130.938 84.4531 131.434 84.375 131.832 84.2188C132.238 84.0625 132.547 83.8477 132.758 83.5742C132.969 83.3008 133.074 82.9883 133.074 82.6367ZM140.445 73.3203V86H138.266V73.3203H140.445ZM138.102 69.957C138.102 69.6055 138.207 69.3086 138.418 69.0664C138.637 68.8242 138.957 68.7031 139.379 68.7031C139.793 68.7031 140.109 68.8242 140.328 69.0664C140.555 69.3086 140.668 69.6055 140.668 69.957C140.668 70.293 140.555 70.582 140.328 70.8242C140.109 71.0586 139.793 71.1758 139.379 71.1758C138.957 71.1758 138.637 71.0586 138.418 70.8242C138.207 70.582 138.102 70.293 138.102 69.957ZM152.141 73.3203H154.109V85.7305C154.109 86.8477 153.883 87.8008 153.43 88.5898C152.977 89.3789 152.344 89.9766 151.531 90.3828C150.727 90.7969 149.797 91.0039 148.742 91.0039C148.305 91.0039 147.789 90.9336 147.195 90.793C146.609 90.6602 146.031 90.4297 145.461 90.1016C144.898 89.7812 144.426 89.3477 144.043 88.8008L145.18 87.5117C145.711 88.1523 146.266 88.5977 146.844 88.8477C147.43 89.0977 148.008 89.2227 148.578 89.2227C149.266 89.2227 149.859 89.0938 150.359 88.8359C150.859 88.5781 151.246 88.1953 151.52 87.6875C151.801 87.1875 151.941 86.5703 151.941 85.8359V76.1094L152.141 73.3203ZM143.41 79.8008V79.5547C143.41 78.5859 143.523 77.707 143.75 76.918C143.984 76.1211 144.316 75.4375 144.746 74.8672C145.184 74.2969 145.711 73.8594 146.328 73.5547C146.945 73.2422 147.641 73.0859 148.414 73.0859C149.211 73.0859 149.906 73.2266 150.5 73.5078C151.102 73.7812 151.609 74.1836 152.023 74.7148C152.445 75.2383 152.777 75.8711 153.02 76.6133C153.262 77.3555 153.43 78.1953 153.523 79.1328V80.2109C153.438 81.1406 153.27 81.9766 153.02 82.7188C152.777 83.4609 152.445 84.0938 152.023 84.6172C151.609 85.1406 151.102 85.543 150.5 85.8242C149.898 86.0977 149.195 86.2344 148.391 86.2344C147.633 86.2344 146.945 86.0742 146.328 85.7539C145.719 85.4336 145.195 84.9844 144.758 84.4062C144.32 83.8281 143.984 83.1484 143.75 82.3672C143.523 81.5781 143.41 80.7227 143.41 79.8008ZM145.578 79.5547V79.8008C145.578 80.4336 145.641 81.0273 145.766 81.582C145.898 82.1367 146.098 82.625 146.363 83.0469C146.637 83.4688 146.984 83.8008 147.406 84.043C147.828 84.2773 148.332 84.3945 148.918 84.3945C149.637 84.3945 150.23 84.2422 150.699 83.9375C151.168 83.6328 151.539 83.2305 151.812 82.7305C152.094 82.2305 152.312 81.6875 152.469 81.1016V78.2773C152.383 77.8477 152.25 77.4336 152.07 77.0352C151.898 76.6289 151.672 76.2695 151.391 75.957C151.117 75.6367 150.777 75.3828 150.371 75.1953C149.965 75.0078 149.488 74.9141 148.941 74.9141C148.348 74.9141 147.836 75.0391 147.406 75.2891C146.984 75.5312 146.637 75.8672 146.363 76.2969C146.098 76.7188 145.898 77.2109 145.766 77.7734C145.641 78.3281 145.578 78.9219 145.578 79.5547ZM159.57 76.0273V86H157.402V73.3203H159.453L159.57 76.0273ZM159.055 79.1797L158.152 79.1445C158.16 78.2773 158.289 77.4766 158.539 76.7422C158.789 76 159.141 75.3555 159.594 74.8086C160.047 74.2617 160.586 73.8398 161.211 73.543C161.844 73.2383 162.543 73.0859 163.309 73.0859C163.934 73.0859 164.496 73.1719 164.996 73.3438C165.496 73.5078 165.922 73.7734 166.273 74.1406C166.633 74.5078 166.906 74.9844 167.094 75.5703C167.281 76.1484 167.375 76.8555 167.375 77.6914V86H165.195V77.668C165.195 77.0039 165.098 76.4727 164.902 76.0742C164.707 75.668 164.422 75.375 164.047 75.1953C163.672 75.0078 163.211 74.9141 162.664 74.9141C162.125 74.9141 161.633 75.0273 161.188 75.2539C160.75 75.4805 160.371 75.793 160.051 76.1914C159.738 76.5898 159.492 77.0469 159.312 77.5625C159.141 78.0703 159.055 78.6094 159.055 79.1797ZM175.93 86.2344C175.047 86.2344 174.246 86.0859 173.527 85.7891C172.816 85.4844 172.203 85.0586 171.688 84.5117C171.18 83.9648 170.789 83.3164 170.516 82.5664C170.242 81.8164 170.105 80.9961 170.105 80.1055V79.6133C170.105 78.582 170.258 77.6641 170.562 76.8594C170.867 76.0469 171.281 75.3594 171.805 74.7969C172.328 74.2344 172.922 73.8086 173.586 73.5195C174.25 73.2305 174.938 73.0859 175.648 73.0859C176.555 73.0859 177.336 73.2422 177.992 73.5547C178.656 73.8672 179.199 74.3047 179.621 74.8672C180.043 75.4219 180.355 76.0781 180.559 76.8359C180.762 77.5859 180.863 78.4062 180.863 79.2969V80.2695H171.395V78.5H178.695V78.3359C178.664 77.7734 178.547 77.2266 178.344 76.6953C178.148 76.1641 177.836 75.7266 177.406 75.3828C176.977 75.0391 176.391 74.8672 175.648 74.8672C175.156 74.8672 174.703 74.9727 174.289 75.1836C173.875 75.3867 173.52 75.6914 173.223 76.0977C172.926 76.5039 172.695 77 172.531 77.5859C172.367 78.1719 172.285 78.8477 172.285 79.6133V80.1055C172.285 80.707 172.367 81.2734 172.531 81.8047C172.703 82.3281 172.949 82.7891 173.27 83.1875C173.598 83.5859 173.992 83.8984 174.453 84.125C174.922 84.3516 175.453 84.4648 176.047 84.4648C176.812 84.4648 177.461 84.3086 177.992 83.9961C178.523 83.6836 178.988 83.2656 179.387 82.7422L180.699 83.7852C180.426 84.1992 180.078 84.5938 179.656 84.9688C179.234 85.3438 178.715 85.6484 178.098 85.8828C177.488 86.1172 176.766 86.2344 175.93 86.2344ZM185.562 75.3125V86H183.395V73.3203H185.504L185.562 75.3125ZM189.523 73.25L189.512 75.2656C189.332 75.2266 189.16 75.2031 188.996 75.1953C188.84 75.1797 188.66 75.1719 188.457 75.1719C187.957 75.1719 187.516 75.25 187.133 75.4062C186.75 75.5625 186.426 75.7812 186.16 76.0625C185.895 76.3438 185.684 76.6797 185.527 77.0703C185.379 77.4531 185.281 77.875 185.234 78.3359L184.625 78.6875C184.625 77.9219 184.699 77.2031 184.848 76.5312C185.004 75.8594 185.242 75.2656 185.562 74.75C185.883 74.2266 186.289 73.8203 186.781 73.5312C187.281 73.2344 187.875 73.0859 188.562 73.0859C188.719 73.0859 188.898 73.1055 189.102 73.1445C189.305 73.1758 189.445 73.2109 189.523 73.25Z" fill="black"/>
</svg>
